<?xml version="1.0" standalone="no"?>
<!DOCTYPE svg PUBLIC "-//W3C//DTD SVG 20010904//EN"
 "http://www.w3.org/TR/2001/REC-SVG-20010904/DTD/svg10.dtd">
<svg version="1.0" xmlns="http://www.w3.org/2000/svg"
 width="5120.000000pt" height="5120.000000pt" viewBox="0 0 5120.000000 5120.000000"
 preserveAspectRatio="xMidYMid meet">

<g transform="translate(0.000000,5120.000000) scale(0.100000,-0.100000)"
fill="#000000" stroke="none">
<path d="M13865 39229 c-171 -22 -400 -97 -555 -181 -431 -235 -727 -634 -833
-1120 l-22 -103 0 -7420 0 -7420 23 -102 c12 -56 40 -154 62 -217 l40 -114
-156 -248 c-247 -392 -785 -1248 -1084 -1724 -151 -239 -337 -536 -415 -660
-78 -124 -566 -900 -1085 -1725 -519 -825 -1267 -2015 -1663 -2645 -1392
-2214 -1713 -2725 -1726 -2755 -27 -60 -41 -122 -47 -200 -21 -285 176 -553
457 -620 57 -13 2067 -15 18739 -15 16672 0 18682 2 18739 15 279 66 478 335
457 617 -11 152 -23 176 -444 845 -1485 2361 -2170 3451 -2992 4758 -515 820
-1002 1594 -1082 1720 -79 127 -465 741 -858 1365 -392 624 -733 1166 -757
1203 l-44 69 41 114 c22 63 50 158 62 212 l23 97 3 7380 c2 5289 0 7404 -8
7465 -60 467 -332 896 -735 1160 -157 103 -354 184 -562 232 l-98 23 -11705 1
c-6695 1 -11735 -2 -11775 -7z m23315 -1190 c187 -29 335 -173 370 -358 15
-79 14 -14481 -1 -14553 -18 -87 -58 -158 -125 -226 -68 -68 -137 -105 -224
-122 -73 -14 -23127 -14 -23200 0 -87 17 -156 54 -224 122 -67 68 -107 139
-125 226 -15 72 -16 14474 -1 14553 34 181 183 328 360 358 81 13 23086 14
23170 0z m988 -17011 c188 -299 427 -678 531 -843 333 -531 1696 -2698 1946
-3095 133 -212 280 -446 327 -520 47 -74 273 -434 503 -800 230 -366 516 -820
635 -1010 119 -190 266 -424 327 -520 552 -877 673 -1072 673 -1080 0 -7
-1943 -9 -5656 -8 l-5657 3 -249 395 c-136 217 -349 555 -472 750 -123 195
-394 625 -602 955 -207 330 -389 620 -403 645 -43 76 -156 181 -241 222 -152
75 222 69 -4265 66 l-4030 -3 -80 -27 c-91 -31 -181 -87 -242 -150 -23 -24
-249 -374 -503 -778 -595 -946 -841 -1338 -1097 -1745 l-208 -330 -5658 -3
c-3792 -1 -5657 1 -5657 8 0 9 217 356 1305 2085 166 264 414 658 550 875 136
217 361 575 500 795 227 361 341 542 607 965 272 434 999 1590 1163 1850 106
168 391 621 633 1006 242 386 461 733 485 770 l44 69 12224 -2 12224 -2 343
-543z m-8766 -6306 c92 -147 349 -557 572 -911 223 -355 404 -646 402 -648 -4
-4 -9548 -4 -9552 0 -2 2 254 413 569 915 l572 911 3635 0 3635 0 167 -267z"/>
<path d="M14925 19770 c-302 -34 -525 -284 -525 -588 0 -176 54 -307 174 -427
82 -81 163 -127 272 -155 74 -19 113 -20 1008 -20 778 0 942 3 1001 15 171 36
328 159 403 316 48 100 62 162 62 272 0 151 -53 287 -155 396 -76 81 -156 134
-259 168 l-81 28 -915 1 c-503 1 -946 -2 -985 -6z"/>
<path d="M18770 19770 c-237 -28 -443 -210 -505 -445 -19 -75 -19 -211 0 -294
45 -188 192 -348 387 -419 l73 -27 8770 -3 c7992 -2 8776 -1 8843 13 171 38
322 156 400 312 52 106 65 171 60 302 -7 162 -57 278 -169 390 -102 101 -218
156 -369 172 -104 11 -17397 10 -17490 -1z"/>
</g>
</svg>
